<svg width="40" height="24" viewBox="0 0 40 24" fill="none" xmlns="http://www.w3.org/2000/svg">
<path d="M1.91008 0.000399553C1.43625 0.0100767 0.985287 0.194904 0.653804 0.515281C0.32232 0.835657 0.136691 1.26609 0.136691 1.71436C0.136691 2.16263 0.32232 2.59307 0.653804 2.91344C0.985287 3.23382 1.43625 3.41865 1.91008 3.42832H38.1484C38.3896 3.43325 38.6295 3.39256 38.8539 3.30864C39.0783 3.22472 39.2827 3.09926 39.4552 2.93961C39.6277 2.77997 39.7647 2.58936 39.8583 2.37896C39.9518 2.16856 40 1.94261 40 1.71436C40 1.48611 39.9518 1.26016 39.8583 1.04976C39.7647 0.839365 39.6277 0.648754 39.4552 0.48911C39.2827 0.329466 39.0783 0.204004 38.8539 0.120083C38.6295 0.0361621 38.3896 -0.00452783 38.1484 0.000399553H1.91008ZM1.7225 10.2842C1.24143 10.3077 0.789949 10.511 0.467373 10.8494C0.144798 11.1878 -0.0224491 11.6335 0.00242553 12.0885C0.0273001 12.5435 0.242258 12.9706 0.600012 13.2757C0.957766 13.5808 1.42901 13.739 1.91008 13.7154H38.1484C38.6294 13.7154 39.0908 13.5347 39.431 13.2129C39.7711 12.8912 39.9622 12.4548 39.9622 11.9998C39.9622 11.5448 39.7711 11.1084 39.431 10.7867C39.0908 10.4649 38.6294 10.2842 38.1484 10.2842H1.91008C1.84759 10.2811 1.78498 10.2811 1.7225 10.2842ZM1.7225 20.5713C1.24912 20.6041 0.808162 20.8109 0.494121 21.1475C0.18008 21.4842 0.017951 21.9237 0.0424843 22.3721C0.0670177 22.8204 0.276261 23.2418 0.625366 23.546C0.974471 23.8501 1.43566 24.0128 1.91008 23.9992H38.1484C38.6222 23.9895 39.0731 23.8047 39.4046 23.4843C39.7361 23.1639 39.9217 22.7335 39.9217 22.2852C39.9217 21.837 39.7361 21.4065 39.4046 21.0862C39.0731 20.7658 38.6222 20.581 38.1484 20.5713H1.91008C1.84759 20.5682 1.78498 20.5682 1.7225 20.5713Z" fill="black"/>
</svg>
